solid G500MK3_STRU_0009_Predeterminado<Como mecanizada>. STL generated by ONSHAPE BY PTC INC, 1.212. Units = meters
   facet normal 5.4185e-17 -9.55411e-17 1
      outer loop
         vertex 0.179 0.0206189 0.0350915
         vertex 0.179 0.0245 0.0350915
         vertex 0.15 0.0245 0.0350915
      endloop
   endfacet
   facet normal 5.4185e-17 -9.55411e-17 1
      outer loop
         vertex 0.15 0.0245 0.0350915
         vertex 0.15 0.0206189 0.0350915
         vertex 0.179 0.0206189 0.0350915
      endloop
   endfacet
   facet normal -6.4249e-17 -0.37963 0.925139
      outer loop
         vertex 0.179 0.0205 0.0350425
         vertex 0.179 0.0206189 0.0350915
         vertex 0.15 0.0206189 0.0350915
      endloop
   endfacet
   facet normal -6.4249e-17 -0.381832 0.924232
      outer loop
         vertex 0.15 0.0206189 0.0350915
         vertex 0.15 0.0205 0.0350425
         vertex 0.179 0.0205 0.0350425
      endloop
   endfacet
   facet normal 1 2.11758e-22 -5.4185e-17
      outer loop
         vertex 0.15 0.0245 0.0368778
         vertex 0.15 0.0205 0.0368778
         vertex 0.15 0.0206189 0.0350915
      endloop
   endfacet
   facet normal 1 2.11758e-22 -5.4185e-17
      outer loop
         vertex 0.15 0.0205 0.0368778
         vertex 0.15 0.0205 0.0350425
         vertex 0.15 0.0206189 0.0350915
      endloop
   endfacet
   facet normal 1 2.11758e-22 -5.4185e-17
      outer loop
         vertex 0.15 0.0206189 0.0350915
         vertex 0.15 0.0245 0.0350915
         vertex 0.15 0.0245 0.0368778
      endloop
   endfacet
   facet normal 1 2.11758e-22 -5.4185e-17
      outer loop
         vertex 0.179 0.0245 0.03
         vertex 0.179 0.0245 0.0350915
         vertex 0.179 0.0206189 0.0350915
      endloop
   endfacet
   facet normal 1 2.11758e-22 -5.4185e-17
      outer loop
         vertex 0.179 0.0206189 0.0350915
         vertex 0.179 0.0205 0.03
         vertex 0.179 0.0245 0.03
      endloop
   endfacet
   facet normal 1 2.11758e-22 -5.4185e-17
      outer loop
         vertex 0.179 0.0206189 0.0350915
         vertex 0.179 0.0205 0.0350425
         vertex 0.179 0.0205 0.03
      endloop
   endfacet
   facet normal 0.22486 -3.52648e-38 -0.974391
      outer loop
         vertex 0.179 0.0205 0.03
         vertex 0.049 0.0205 0
         vertex 0.049 0.0245 3.46945e-18
      endloop
   endfacet
   facet normal 0.22486 -3.52648e-38 -0.974391
      outer loop
         vertex 0.049 0.0245 3.46945e-18
         vertex 0.179 0.0245 0.03
         vertex 0.179 0.0205 0.03
      endloop
   endfacet
   facet normal 5.4185e-17 -1.05879e-22 -1
      outer loop
         vertex 0.044 0.0205 -3.46945e-18
         vertex 0.044 0.0245 0
         vertex 0.049 0.0245 3.46945e-18
      endloop
   endfacet
   facet normal 5.4185e-17 -1.05879e-22 -1
      outer loop
         vertex 0.049 0.0245 3.46945e-18
         vertex 0.049 0.0205 0
         vertex 0.044 0.0205 -3.46945e-18
      endloop
   endfacet
   facet normal -3.17637e-22 -1 -9.40795e-17
      outer loop
         vertex 0.054 0.0205 0.0368778
         vertex 0.049 0.0205 0
         vertex 0.15 0.0205 0.0350425
      endloop
   endfacet
   facet normal -3.17637e-22 -1 -9.40795e-17
      outer loop
         vertex 0.15 0.0205 0.0350425
         vertex 0.15 0.0205 0.0368778
         vertex 0.054 0.0205 0.0368778
      endloop
   endfacet
   facet normal -3.17637e-22 -1 -9.40795e-17
      outer loop
         vertex 0.044 0.0205 0.0298778
         vertex 0.044 0.0205 -3.46945e-18
         vertex 0.049 0.0205 0
      endloop
   endfacet
   facet normal -3.17637e-22 -1 -9.40795e-17
      outer loop
         vertex 0.179 0.0205 0.03
         vertex 0.179 0.0205 0.0350425
         vertex 0.15 0.0205 0.0350425
      endloop
   endfacet
   facet normal -3.17637e-22 -1 -9.40795e-17
      outer loop
         vertex 0.15 0.0205 0.0350425
         vertex 0.049 0.0205 0
         vertex 0.179 0.0205 0.03
      endloop
   endfacet
   facet normal -3.17637e-22 -1 -9.40795e-17
      outer loop
         vertex 0.054 0.0205 0.0368778
         vertex 0.044 0.0205 0.0298778
         vertex 0.049 0.0205 0
      endloop
   endfacet
   facet normal 3.17637e-22 1 9.40795e-17
      outer loop
         vertex 0.054 0.0245 0.0368778
         vertex 0.15 0.0245 0.0368778
         vertex 0.15 0.0245 0.0350915
      endloop
   endfacet
   facet normal 3.17637e-22 1 9.40795e-17
      outer loop
         vertex 0.049 0.0245 3.46945e-18
         vertex 0.044 0.0245 0.0298778
         vertex 0.054 0.0245 0.0368778
      endloop
   endfacet
   facet normal 3.17637e-22 1 9.40795e-17
      outer loop
         vertex 0.179 0.0245 0.03
         vertex 0.049 0.0245 3.46945e-18
         vertex 0.15 0.0245 0.0350915
      endloop
   endfacet
   facet normal 3.17637e-22 1 9.40795e-17
      outer loop
         vertex 0.15 0.0245 0.0350915
         vertex 0.049 0.0245 3.46945e-18
         vertex 0.054 0.0245 0.0368778
      endloop
   endfacet
   facet normal 3.17637e-22 1 9.40795e-17
      outer loop
         vertex 0.049 0.0245 3.46945e-18
         vertex 0.044 0.0245 0
         vertex 0.044 0.0245 0.0298778
      endloop
   endfacet
   facet normal 3.17637e-22 1 9.40795e-17
      outer loop
         vertex 0.15 0.0245 0.0350915
         vertex 0.179 0.0245 0.0350915
         vertex 0.179 0.0245 0.03
      endloop
   endfacet
   facet normal -0.573462 -1.05879e-22 0.819232
      outer loop
         vertex 0.054 0.0205 0.0368778
         vertex 0.054 0.0245 0.0368778
         vertex 0.044 0.0245 0.0298778
      endloop
   endfacet
   facet normal -0.573462 -1.05879e-22 0.819232
      outer loop
         vertex 0.044 0.0245 0.0298778
         vertex 0.044 0.0205 0.0298778
         vertex 0.054 0.0205 0.0368778
      endloop
   endfacet
   facet normal -1 -2.11758e-22 5.4185e-17
      outer loop
         vertex 0.044 0.0205 0.0298778
         vertex 0.044 0.0245 0.0298778
         vertex 0.044 0.0245 0
      endloop
   endfacet
   facet normal -1 -2.11758e-22 5.4185e-17
      outer loop
         vertex 0.044 0.0245 0
         vertex 0.044 0.0205 -3.46945e-18
         vertex 0.044 0.0205 0.0298778
      endloop
   endfacet
   facet normal -5.4185e-17 1.05879e-22 1
      outer loop
         vertex 0.054 0.0205 0.0368778
         vertex 0.15 0.0205 0.0368778
         vertex 0.15 0.0245 0.0368778
      endloop
   endfacet
   facet normal -5.4185e-17 1.05879e-22 1
      outer loop
         vertex 0.15 0.0245 0.0368778
         vertex 0.054 0.0245 0.0368778
         vertex 0.054 0.0205 0.0368778
      endloop
   endfacet
endsolid G500MK3_STRU_0009_Predeterminado<Como mecanizada>. Units = meters