solid G500MK3_STRU_0001_Predeterminado<Como mecanizada>. STL generated by ONSHAPE BY PTC INC, 1.212. Units = meters
   facet normal 0 0 -1
      outer loop
         vertex -0.0507329 -0.0199 0.415
         vertex -0.05 -0.0199 0.415
         vertex -0.05 -0.0239 0.415
      endloop
   endfacet
   facet normal 0 0 -1
      outer loop
         vertex -0.05 -0.0239 0.415
         vertex -0.0507329 -0.0239 0.415
         vertex -0.0507329 -0.0199 0.415
      endloop
   endfacet
   facet normal 1 0 0
      outer loop
         vertex -0.0507329 -0.0239 0.415
         vertex -0.0507329 -0.0239 0.395
         vertex -0.0507329 -0.0199 0.395
      endloop
   endfacet
   facet normal 1 0 0
      outer loop
         vertex -0.0507329 -0.0199 0.395
         vertex -0.0507329 -0.0199 0.415
         vertex -0.0507329 -0.0239 0.415
      endloop
   endfacet
   facet normal 1 0 0
      outer loop
         vertex -0.05 -0.0199 0.4548
         vertex -0.05 -0.0239 0.4548
         vertex -0.05 -0.0239 0.415
      endloop
   endfacet
   facet normal 1 0 0
      outer loop
         vertex -0.05 -0.0239 0.415
         vertex -0.05 -0.0199 0.415
         vertex -0.05 -0.0199 0.4548
      endloop
   endfacet
   facet normal 0 0 -1
      outer loop
         vertex -0.056 -0.0239 0.395
         vertex -0.056 -0.0199 0.395
         vertex -0.0507329 -0.0199 0.395
      endloop
   endfacet
   facet normal 0 0 -1
      outer loop
         vertex -0.0507329 -0.0199 0.395
         vertex -0.0507329 -0.0239 0.395
         vertex -0.056 -0.0239 0.395
      endloop
   endfacet
   facet normal 1.84889e-32 1 4.62223e-33
      outer loop
         vertex -0.0507329 -0.0199 0.415
         vertex -0.056 -0.0199 0.395
         vertex -0.166 -0.0199 0.44
      endloop
   endfacet
   facet normal 1.84889e-32 1 4.62223e-33
      outer loop
         vertex -0.0507329 -0.0199 0.415
         vertex -0.0507329 -0.0199 0.395
         vertex -0.056 -0.0199 0.395
      endloop
   endfacet
   facet normal 1.84889e-32 1 4.62223e-33
      outer loop
         vertex -0.05 -0.0199 0.4548
         vertex -0.05 -0.0199 0.415
         vertex -0.0507329 -0.0199 0.415
      endloop
   endfacet
   facet normal 1.84889e-32 1 4.62223e-33
      outer loop
         vertex -0.0507329 -0.0199 0.415
         vertex -0.166 -0.0199 0.4548
         vertex -0.05 -0.0199 0.4548
      endloop
   endfacet
   facet normal 1.84889e-32 1 4.62223e-33
      outer loop
         vertex -0.166 -0.0199 0.44
         vertex -0.166 -0.0199 0.4548
         vertex -0.0507329 -0.0199 0.415
      endloop
   endfacet
   facet normal -1.84889e-32 -1 -4.62223e-33
      outer loop
         vertex -0.0507329 -0.0239 0.415
         vertex -0.166 -0.0239 0.4548
         vertex -0.166 -0.0239 0.44
      endloop
   endfacet
   facet normal -1.84889e-32 -1 -4.62223e-33
      outer loop
         vertex -0.05 -0.0239 0.4548
         vertex -0.166 -0.0239 0.4548
         vertex -0.0507329 -0.0239 0.415
      endloop
   endfacet
   facet normal -1.84889e-32 -1 -4.62223e-33
      outer loop
         vertex -0.166 -0.0239 0.44
         vertex -0.056 -0.0239 0.395
         vertex -0.0507329 -0.0239 0.415
      endloop
   endfacet
   facet normal -1.84889e-32 -1 -4.62223e-33
      outer loop
         vertex -0.056 -0.0239 0.395
         vertex -0.0507329 -0.0239 0.395
         vertex -0.0507329 -0.0239 0.415
      endloop
   endfacet
   facet normal -1.84889e-32 -1 -4.62223e-33
      outer loop
         vertex -0.0507329 -0.0239 0.415
         vertex -0.05 -0.0239 0.415
         vertex -0.05 -0.0239 0.4548
      endloop
   endfacet
   facet normal -0.378633 2.72242e-33 -0.925547
      outer loop
         vertex -0.166 -0.0239 0.44
         vertex -0.166 -0.0199 0.44
         vertex -0.056 -0.0199 0.395
      endloop
   endfacet
   facet normal -0.378633 2.72242e-33 -0.925547
      outer loop
         vertex -0.056 -0.0199 0.395
         vertex -0.056 -0.0239 0.395
         vertex -0.166 -0.0239 0.44
      endloop
   endfacet
   facet normal -1 0 0
      outer loop
         vertex -0.166 -0.0239 0.4548
         vertex -0.166 -0.0199 0.4548
         vertex -0.166 -0.0199 0.44
      endloop
   endfacet
   facet normal -1 0 0
      outer loop
         vertex -0.166 -0.0199 0.44
         vertex -0.166 -0.0239 0.44
         vertex -0.166 -0.0239 0.4548
      endloop
   endfacet
   facet normal 0 0 1
      outer loop
         vertex -0.166 -0.0239 0.4548
         vertex -0.05 -0.0239 0.4548
         vertex -0.05 -0.0199 0.4548
      endloop
   endfacet
   facet normal 0 0 1
      outer loop
         vertex -0.05 -0.0199 0.4548
         vertex -0.166 -0.0199 0.4548
         vertex -0.166 -0.0239 0.4548
      endloop
   endfacet
endsolid G500MK3_STRU_0001_Predeterminado<Como mecanizada>. Units = meters