solid G500MK3_STRU_0009_Predeterminado<Como mecanizada>. STL generated by ONSHAPE BY PTC INC, 1.212. Units = meters
   facet normal -1.32041e-18 -9.55408e-17 1
      outer loop
         vertex 0.15 -0.0206189 0.0350915
         vertex 0.15 -0.0245 0.0350915
         vertex 0.179 -0.0245 0.0350915
      endloop
   endfacet
   facet normal -1.32041e-18 -9.55408e-17 1
      outer loop
         vertex 0.179 -0.0245 0.0350915
         vertex 0.179 -0.0206189 0.0350915
         vertex 0.15 -0.0206189 0.0350915
      endloop
   endfacet
   facet normal 0 0.381832 0.924232
      outer loop
         vertex 0.179 -0.0206189 0.0350915
         vertex 0.179 -0.0205 0.0350425
         vertex 0.15 -0.0205 0.0350425
      endloop
   endfacet
   facet normal 0 0.37963 0.925139
      outer loop
         vertex 0.15 -0.0205 0.0350425
         vertex 0.15 -0.0206189 0.0350915
         vertex 0.179 -0.0206189 0.0350915
      endloop
   endfacet
   facet normal 1 -1.05879e-22 1.32035e-18
      outer loop
         vertex 0.15 -0.0245 0.0368778
         vertex 0.15 -0.0245 0.0350915
         vertex 0.15 -0.0206189 0.0350915
      endloop
   endfacet
   facet normal 1 -1.05879e-22 1.32035e-18
      outer loop
         vertex 0.15 -0.0206189 0.0350915
         vertex 0.15 -0.0205 0.0368778
         vertex 0.15 -0.0245 0.0368778
      endloop
   endfacet
   facet normal 1 -1.05879e-22 1.32035e-18
      outer loop
         vertex 0.15 -0.0206189 0.0350915
         vertex 0.15 -0.0205 0.0350425
         vertex 0.15 -0.0205 0.0368778
      endloop
   endfacet
   facet normal 1 -1.05879e-22 1.32035e-18
      outer loop
         vertex 0.179 -0.0245 0.03
         vertex 0.179 -0.0205 0.03
         vertex 0.179 -0.0206189 0.0350915
      endloop
   endfacet
   facet normal 1 -1.05879e-22 1.32035e-18
      outer loop
         vertex 0.179 -0.0205 0.03
         vertex 0.179 -0.0205 0.0350425
         vertex 0.179 -0.0206189 0.0350915
      endloop
   endfacet
   facet normal 1 -1.05879e-22 1.32035e-18
      outer loop
         vertex 0.179 -0.0206189 0.0350915
         vertex 0.179 -0.0245 0.0350915
         vertex 0.179 -0.0245 0.03
      endloop
   endfacet
   facet normal 0.22486 1.19329e-16 -0.974391
      outer loop
         vertex 0.179 -0.0245 0.03
         vertex 0.049 -0.0245 -4.732e-18
         vertex 0.049 -0.0205 5.7215e-20
      endloop
   endfacet
   facet normal 0.22486 1.19329e-16 -0.974391
      outer loop
         vertex 0.049 -0.0205 5.7215e-20
         vertex 0.179 -0.0205 0.03
         vertex 0.179 -0.0245 0.03
      endloop
   endfacet
   facet normal 0 0 -1
      outer loop
         vertex 0.044 -0.0245 -4.7298e-18
         vertex 0.044 -0.0205 -4.56651e-18
         vertex 0.049 -0.0205 5.7215e-20
      endloop
   endfacet
   facet normal 0 0 -1
      outer loop
         vertex 0.049 -0.0205 5.7215e-20
         vertex 0.049 -0.0245 -4.732e-18
         vertex 0.044 -0.0245 -4.7298e-18
      endloop
   endfacet
   facet normal -1.05879e-22 1 9.40797e-17
      outer loop
         vertex 0.054 -0.0205 0.0368778
         vertex 0.15 -0.0205 0.0368778
         vertex 0.15 -0.0205 0.0350425
      endloop
   endfacet
   facet normal -1.05879e-22 1 9.40797e-17
      outer loop
         vertex 0.049 -0.0205 5.7215e-20
         vertex 0.044 -0.0205 0.0298778
         vertex 0.054 -0.0205 0.0368778
      endloop
   endfacet
   facet normal -1.05879e-22 1 9.40797e-17
      outer loop
         vertex 0.179 -0.0205 0.03
         vertex 0.049 -0.0205 5.7215e-20
         vertex 0.15 -0.0205 0.0350425
      endloop
   endfacet
   facet normal -1.05879e-22 1 9.40797e-17
      outer loop
         vertex 0.15 -0.0205 0.0350425
         vertex 0.049 -0.0205 5.7215e-20
         vertex 0.054 -0.0205 0.0368778
      endloop
   endfacet
   facet normal -1.05879e-22 1 9.40797e-17
      outer loop
         vertex 0.049 -0.0205 5.7215e-20
         vertex 0.044 -0.0205 -4.56651e-18
         vertex 0.044 -0.0205 0.0298778
      endloop
   endfacet
   facet normal -1.05879e-22 1 9.40797e-17
      outer loop
         vertex 0.15 -0.0205 0.0350425
         vertex 0.179 -0.0205 0.0350425
         vertex 0.179 -0.0205 0.03
      endloop
   endfacet
   facet normal 1.05879e-22 -1 -9.40797e-17
      outer loop
         vertex 0.054 -0.0245 0.0368778
         vertex 0.049 -0.0245 -4.732e-18
         vertex 0.15 -0.0245 0.0350915
      endloop
   endfacet
   facet normal 1.05879e-22 -1 -9.40797e-17
      outer loop
         vertex 0.15 -0.0245 0.0350915
         vertex 0.15 -0.0245 0.0368778
         vertex 0.054 -0.0245 0.0368778
      endloop
   endfacet
   facet normal 1.05879e-22 -1 -9.40797e-17
      outer loop
         vertex 0.044 -0.0245 0.0298778
         vertex 0.044 -0.0245 -4.7298e-18
         vertex 0.049 -0.0245 -4.732e-18
      endloop
   endfacet
   facet normal 1.05879e-22 -1 -9.40797e-17
      outer loop
         vertex 0.179 -0.0245 0.03
         vertex 0.179 -0.0245 0.0350915
         vertex 0.15 -0.0245 0.0350915
      endloop
   endfacet
   facet normal 1.05879e-22 -1 -9.40797e-17
      outer loop
         vertex 0.15 -0.0245 0.0350915
         vertex 0.049 -0.0245 -4.732e-18
         vertex 0.179 -0.0245 0.03
      endloop
   endfacet
   facet normal 1.05879e-22 -1 -9.40797e-17
      outer loop
         vertex 0.054 -0.0245 0.0368778
         vertex 0.044 -0.0245 0.0298778
         vertex 0.049 -0.0245 -4.732e-18
      endloop
   endfacet
   facet normal -0.573462 2.35099e-38 0.819232
      outer loop
         vertex 0.054 -0.0245 0.0368778
         vertex 0.054 -0.0205 0.0368778
         vertex 0.044 -0.0205 0.0298778
      endloop
   endfacet
   facet normal -0.573462 2.35099e-38 0.819232
      outer loop
         vertex 0.044 -0.0205 0.0298778
         vertex 0.044 -0.0245 0.0298778
         vertex 0.054 -0.0245 0.0368778
      endloop
   endfacet
   facet normal -1 1.05879e-22 -1.32035e-18
      outer loop
         vertex 0.044 -0.0205 -4.56651e-18
         vertex 0.044 -0.0245 -4.7298e-18
         vertex 0.044 -0.0245 0.0298778
      endloop
   endfacet
   facet normal -1 1.05879e-22 -1.32035e-18
      outer loop
         vertex 0.044 -0.0245 0.0298778
         vertex 0.044 -0.0205 0.0298778
         vertex 0.044 -0.0205 -4.56651e-18
      endloop
   endfacet
   facet normal 1.32035e-18 -1.05879e-22 1
      outer loop
         vertex 0.054 -0.0245 0.0368778
         vertex 0.15 -0.0245 0.0368778
         vertex 0.15 -0.0205 0.0368778
      endloop
   endfacet
   facet normal 1.32035e-18 -1.05879e-22 1
      outer loop
         vertex 0.15 -0.0205 0.0368778
         vertex 0.054 -0.0205 0.0368778
         vertex 0.054 -0.0245 0.0368778
      endloop
   endfacet
endsolid G500MK3_STRU_0009_Predeterminado<Como mecanizada>. Units = meters