solid G500MK3_STRU_0009_Predeterminado<Como mecanizada>. STL generated by ONSHAPE BY PTC INC, 1.212. Units = meters
   facet normal -3.90055e-33 9.55409e-17 -1
      outer loop
         vertex 0.15 0.0205 0.134957
         vertex 0.15 0.0245 0.134957
         vertex 0.179 0.0245 0.134957
      endloop
   endfacet
   facet normal -3.90055e-33 9.55409e-17 -1
      outer loop
         vertex 0.179 0.0245 0.134957
         vertex 0.179 0.0205 0.134957
         vertex 0.15 0.0205 0.134957
      endloop
   endfacet
   facet normal 1 0 -9.93178e-34
      outer loop
         vertex 0.15 0.0245 0.134957
         vertex 0.15 0.0205 0.134957
         vertex 0.15 0.0205 0.133122
      endloop
   endfacet
   facet normal 1 0 -9.93178e-34
      outer loop
         vertex 0.15 0.0205 0.133122
         vertex 0.15 0.0245 0.133122
         vertex 0.15 0.0245 0.134957
      endloop
   endfacet
   facet normal -3.90055e-33 9.55409e-17 -1
      outer loop
         vertex 0.054 0.0245 0.133122
         vertex 0.15 0.0245 0.133122
         vertex 0.15 0.0205 0.133122
      endloop
   endfacet
   facet normal -3.90055e-33 9.55409e-17 -1
      outer loop
         vertex 0.15 0.0205 0.133122
         vertex 0.054 0.0205 0.133122
         vertex 0.054 0.0245 0.133122
      endloop
   endfacet
   facet normal -0.573462 -6.16298e-33 -0.819232
      outer loop
         vertex 0.054 0.0245 0.133122
         vertex 0.054 0.0205 0.133122
         vertex 0.044 0.0205 0.140122
      endloop
   endfacet
   facet normal -0.573462 -6.16298e-33 -0.819232
      outer loop
         vertex 0.044 0.0205 0.140122
         vertex 0.044 0.0245 0.140122
         vertex 0.054 0.0245 0.133122
      endloop
   endfacet
   facet normal -1 0 9.93178e-34
      outer loop
         vertex 0.044 0.0205 0.17006
         vertex 0.044 0.0245 0.17006
         vertex 0.044 0.0245 0.140122
      endloop
   endfacet
   facet normal -1 0 9.93178e-34
      outer loop
         vertex 0.044 0.0245 0.140122
         vertex 0.044 0.0205 0.140122
         vertex 0.044 0.0205 0.17006
      endloop
   endfacet
   facet normal 0 -1 0
      outer loop
         vertex 0.054 0.0205 0.133122
         vertex 0.15 0.0205 0.133122
         vertex 0.15 0.0205 0.134957
      endloop
   endfacet
   facet normal 0 -1 0
      outer loop
         vertex 0.049 0.0205 0.17006
         vertex 0.044 0.0205 0.140122
         vertex 0.054 0.0205 0.133122
      endloop
   endfacet
   facet normal 0 -1 0
      outer loop
         vertex 0.179 0.0205 0.14006
         vertex 0.049 0.0205 0.17006
         vertex 0.15 0.0205 0.134957
      endloop
   endfacet
   facet normal 0 -1 0
      outer loop
         vertex 0.15 0.0205 0.134957
         vertex 0.049 0.0205 0.17006
         vertex 0.054 0.0205 0.133122
      endloop
   endfacet
   facet normal 0 -1 0
      outer loop
         vertex 0.049 0.0205 0.17006
         vertex 0.044 0.0205 0.17006
         vertex 0.044 0.0205 0.140122
      endloop
   endfacet
   facet normal 0 -1 0
      outer loop
         vertex 0.15 0.0205 0.134957
         vertex 0.179 0.0205 0.134957
         vertex 0.179 0.0205 0.14006
      endloop
   endfacet
   facet normal 0 1 0
      outer loop
         vertex 0.054 0.0245 0.133122
         vertex 0.049 0.0245 0.17006
         vertex 0.15 0.0245 0.134957
      endloop
   endfacet
   facet normal 0 1 0
      outer loop
         vertex 0.15 0.0245 0.134957
         vertex 0.15 0.0245 0.133122
         vertex 0.054 0.0245 0.133122
      endloop
   endfacet
   facet normal 0 1 0
      outer loop
         vertex 0.044 0.0245 0.140122
         vertex 0.044 0.0245 0.17006
         vertex 0.049 0.0245 0.17006
      endloop
   endfacet
   facet normal 0 1 0
      outer loop
         vertex 0.179 0.0245 0.14006
         vertex 0.179 0.0245 0.134957
         vertex 0.15 0.0245 0.134957
      endloop
   endfacet
   facet normal 0 1 0
      outer loop
         vertex 0.15 0.0245 0.134957
         vertex 0.049 0.0245 0.17006
         vertex 0.179 0.0245 0.14006
      endloop
   endfacet
   facet normal 0 1 0
      outer loop
         vertex 0.054 0.0245 0.133122
         vertex 0.044 0.0245 0.140122
         vertex 0.049 0.0245 0.17006
      endloop
   endfacet
   facet normal 0.22486 6.16298e-33 0.974391
      outer loop
         vertex 0.179 0.0205 0.14006
         vertex 0.179 0.0245 0.14006
         vertex 0.049 0.0245 0.17006
      endloop
   endfacet
   facet normal 0.22486 6.16298e-33 0.974391
      outer loop
         vertex 0.049 0.0245 0.17006
         vertex 0.049 0.0205 0.17006
         vertex 0.179 0.0205 0.14006
      endloop
   endfacet
   facet normal -9.93178e-34 0 1
      outer loop
         vertex 0.044 0.0245 0.17006
         vertex 0.044 0.0205 0.17006
         vertex 0.049 0.0205 0.17006
      endloop
   endfacet
   facet normal -9.93178e-34 0 1
      outer loop
         vertex 0.049 0.0205 0.17006
         vertex 0.049 0.0245 0.17006
         vertex 0.044 0.0245 0.17006
      endloop
   endfacet
   facet normal 1 0 -9.93178e-34
      outer loop
         vertex 0.179 0.0245 0.14006
         vertex 0.179 0.0205 0.14006
         vertex 0.179 0.0205 0.134957
      endloop
   endfacet
   facet normal 1 0 -9.93178e-34
      outer loop
         vertex 0.179 0.0205 0.134957
         vertex 0.179 0.0245 0.134957
         vertex 0.179 0.0245 0.14006
      endloop
   endfacet
endsolid G500MK3_STRU_0009_Predeterminado<Como mecanizada>. Units = meters