solid glass. STL generated by ONSHAPE BY PTC INC, 1.212. Units = meters
   facet normal 1 -6.30809e-17 0
      outer loop
         vertex 0.0275 -0.0275 0.005
         vertex 0.0275 -0.0275 0
         vertex 0.0275 0.0275 0
      endloop
   endfacet
   facet normal 1 -6.30809e-17 0
      outer loop
         vertex 0.0275 0.0275 0
         vertex 0.0275 0.0275 0.005
         vertex 0.0275 -0.0275 0.005
      endloop
   endfacet
   facet normal 0 1 0
      outer loop
         vertex 0.0275 0.0275 0.005
         vertex 0.0275 0.0275 0
         vertex -0.0275 0.0275 0
      endloop
   endfacet
   facet normal 0 1 0
      outer loop
         vertex -0.0275 0.0275 0
         vertex -0.0275 0.0275 0.005
         vertex 0.0275 0.0275 0.005
      endloop
   endfacet
   facet normal -1 6.30809e-17 0
      outer loop
         vertex -0.0275 0.0275 0.005
         vertex -0.0275 0.0275 0
         vertex -0.0275 -0.0275 0
      endloop
   endfacet
   facet normal -1 6.30809e-17 0
      outer loop
         vertex -0.0275 -0.0275 0
         vertex -0.0275 -0.0275 0.005
         vertex -0.0275 0.0275 0.005
      endloop
   endfacet
   facet normal 0 -1 0
      outer loop
         vertex -0.0275 -0.0275 0.005
         vertex -0.0275 -0.0275 0
         vertex 0.0275 -0.0275 0
      endloop
   endfacet
   facet normal 0 -1 0
      outer loop
         vertex 0.0275 -0.0275 0
         vertex 0.0275 -0.0275 0.005
         vertex -0.0275 -0.0275 0.005
      endloop
   endfacet
   facet normal 0 0 1
      outer loop
         vertex -0.0275 -0.0275 0.005
         vertex 0.0275 -0.0275 0.005
         vertex 0.0275 0.0275 0.005
      endloop
   endfacet
   facet normal 0 0 1
      outer loop
         vertex 0.0275 0.0275 0.005
         vertex -0.0275 0.0275 0.005
         vertex -0.0275 -0.0275 0.005
      endloop
   endfacet
   facet normal 0 0 -1
      outer loop
         vertex -0.0275 0.0275 0
         vertex 0.0275 0.0275 0
         vertex 0.0275 -0.0275 0
      endloop
   endfacet
   facet normal 0 0 -1
      outer loop
         vertex 0.0275 -0.0275 0
         vertex -0.0275 -0.0275 0
         vertex -0.0275 0.0275 0
      endloop
   endfacet
endsolid glass. Units = meters