solid G500MK3_STRU_0009_Predeterminado<Como mecanizada>. STL generated by ONSHAPE BY PTC INC, 1.212. Units = meters
   facet normal 5.55112e-17 9.55409e-17 -1
      outer loop
         vertex 0.179 -0.0205 0.134957
         vertex 0.179 -0.0245 0.134957
         vertex 0.15 -0.0245 0.134957
      endloop
   endfacet
   facet normal 5.55112e-17 9.55409e-17 -1
      outer loop
         vertex 0.15 -0.0245 0.134957
         vertex 0.15 -0.0205 0.134957
         vertex 0.179 -0.0205 0.134957
      endloop
   endfacet
   facet normal 1 -1.84889e-32 5.55112e-17
      outer loop
         vertex 0.15 -0.0245 0.134957
         vertex 0.15 -0.0245 0.133122
         vertex 0.15 -0.0205 0.133122
      endloop
   endfacet
   facet normal 1 -1.84889e-32 5.55112e-17
      outer loop
         vertex 0.15 -0.0205 0.133122
         vertex 0.15 -0.0205 0.134957
         vertex 0.15 -0.0245 0.134957
      endloop
   endfacet
   facet normal 5.55112e-17 9.55409e-17 -1
      outer loop
         vertex 0.054 -0.0205 0.133122
         vertex 0.15 -0.0205 0.133122
         vertex 0.15 -0.0245 0.133122
      endloop
   endfacet
   facet normal 5.55112e-17 9.55409e-17 -1
      outer loop
         vertex 0.15 -0.0245 0.133122
         vertex 0.054 -0.0245 0.133122
         vertex 0.054 -0.0205 0.133122
      endloop
   endfacet
   facet normal -0.573462 2.46519e-32 -0.819232
      outer loop
         vertex 0.054 -0.0205 0.133122
         vertex 0.054 -0.0245 0.133122
         vertex 0.044 -0.0245 0.140122
      endloop
   endfacet
   facet normal -0.573462 2.46519e-32 -0.819232
      outer loop
         vertex 0.044 -0.0245 0.140122
         vertex 0.044 -0.0205 0.140122
         vertex 0.054 -0.0205 0.133122
      endloop
   endfacet
   facet normal -1 1.84889e-32 -5.55112e-17
      outer loop
         vertex 0.044 -0.0245 0.17006
         vertex 0.044 -0.0205 0.17006
         vertex 0.044 -0.0205 0.140122
      endloop
   endfacet
   facet normal -1 1.84889e-32 -5.55112e-17
      outer loop
         vertex 0.044 -0.0205 0.140122
         vertex 0.044 -0.0245 0.140122
         vertex 0.044 -0.0245 0.17006
      endloop
   endfacet
   facet normal -1.84889e-32 1 4.93038e-32
      outer loop
         vertex 0.054 -0.0205 0.133122
         vertex 0.049 -0.0205 0.17006
         vertex 0.15 -0.0205 0.134957
      endloop
   endfacet
   facet normal -1.84889e-32 1 4.93038e-32
      outer loop
         vertex 0.15 -0.0205 0.134957
         vertex 0.15 -0.0205 0.133122
         vertex 0.054 -0.0205 0.133122
      endloop
   endfacet
   facet normal -1.84889e-32 1 4.93038e-32
      outer loop
         vertex 0.044 -0.0205 0.140122
         vertex 0.044 -0.0205 0.17006
         vertex 0.049 -0.0205 0.17006
      endloop
   endfacet
   facet normal -1.84889e-32 1 4.93038e-32
      outer loop
         vertex 0.179 -0.0205 0.14006
         vertex 0.179 -0.0205 0.134957
         vertex 0.15 -0.0205 0.134957
      endloop
   endfacet
   facet normal -1.84889e-32 1 4.93038e-32
      outer loop
         vertex 0.15 -0.0205 0.134957
         vertex 0.049 -0.0205 0.17006
         vertex 0.179 -0.0205 0.14006
      endloop
   endfacet
   facet normal -1.84889e-32 1 4.93038e-32
      outer loop
         vertex 0.054 -0.0205 0.133122
         vertex 0.044 -0.0205 0.140122
         vertex 0.049 -0.0205 0.17006
      endloop
   endfacet
   facet normal 1.84889e-32 -1 -4.93038e-32
      outer loop
         vertex 0.054 -0.0245 0.133122
         vertex 0.15 -0.0245 0.133122
         vertex 0.15 -0.0245 0.134957
      endloop
   endfacet
   facet normal 1.84889e-32 -1 -4.93038e-32
      outer loop
         vertex 0.049 -0.0245 0.17006
         vertex 0.044 -0.0245 0.140122
         vertex 0.054 -0.0245 0.133122
      endloop
   endfacet
   facet normal 1.84889e-32 -1 -4.93038e-32
      outer loop
         vertex 0.179 -0.0245 0.14006
         vertex 0.049 -0.0245 0.17006
         vertex 0.15 -0.0245 0.134957
      endloop
   endfacet
   facet normal 1.84889e-32 -1 -4.93038e-32
      outer loop
         vertex 0.15 -0.0245 0.134957
         vertex 0.049 -0.0245 0.17006
         vertex 0.054 -0.0245 0.133122
      endloop
   endfacet
   facet normal 1.84889e-32 -1 -4.93038e-32
      outer loop
         vertex 0.049 -0.0245 0.17006
         vertex 0.044 -0.0245 0.17006
         vertex 0.044 -0.0245 0.140122
      endloop
   endfacet
   facet normal 1.84889e-32 -1 -4.93038e-32
      outer loop
         vertex 0.15 -0.0245 0.134957
         vertex 0.179 -0.0245 0.134957
         vertex 0.179 -0.0245 0.14006
      endloop
   endfacet
   facet normal 0.22486 1.02634e-48 0.974391
      outer loop
         vertex 0.179 -0.0245 0.14006
         vertex 0.179 -0.0205 0.14006
         vertex 0.049 -0.0205 0.17006
      endloop
   endfacet
   facet normal 0.22486 1.02634e-48 0.974391
      outer loop
         vertex 0.049 -0.0205 0.17006
         vertex 0.049 -0.0245 0.17006
         vertex 0.179 -0.0245 0.14006
      endloop
   endfacet
   facet normal 5.55112e-17 -4.93038e-32 1
      outer loop
         vertex 0.044 -0.0205 0.17006
         vertex 0.044 -0.0245 0.17006
         vertex 0.049 -0.0245 0.17006
      endloop
   endfacet
   facet normal 5.55112e-17 -4.93038e-32 1
      outer loop
         vertex 0.049 -0.0245 0.17006
         vertex 0.049 -0.0205 0.17006
         vertex 0.044 -0.0205 0.17006
      endloop
   endfacet
   facet normal 1 -1.84889e-32 5.55112e-17
      outer loop
         vertex 0.179 -0.0205 0.14006
         vertex 0.179 -0.0245 0.14006
         vertex 0.179 -0.0245 0.134957
      endloop
   endfacet
   facet normal 1 -1.84889e-32 5.55112e-17
      outer loop
         vertex 0.179 -0.0245 0.134957
         vertex 0.179 -0.0205 0.134957
         vertex 0.179 -0.0205 0.14006
      endloop
   endfacet
endsolid G500MK3_STRU_0009_Predeterminado<Como mecanizada>. Units = meters